<svg width="40" height="40" viewBox="0 0 40 40" fill="none" xmlns="http://www.w3.org/2000/svg">
<path d="M11.6667 18.3333L18.3333 3.33333C19.6594 3.33333 20.9312 3.86012 21.8689 4.7978C22.8065 5.73548 23.3333 7.00725 23.3333 8.33333V15H32.7667C33.2498 14.9945 33.7284 15.0942 34.1693 15.292C34.6101 15.4899 35.0027 15.7812 35.3198 16.1459C35.6368 16.5105 35.8708 16.9397 36.0056 17.4038C36.1403 17.8678 36.1725 18.3556 36.1 18.8333L33.8 33.8333C33.6795 34.6282 33.2757 35.3527 32.6632 35.8733C32.0506 36.394 31.2705 36.6758 30.4667 36.6667H11.6667M11.6667 18.3333V36.6667M11.6667 18.3333H6.66667C5.78261 18.3333 4.93476 18.6845 4.30964 19.3096C3.68452 19.9348 3.33333 20.7826 3.33333 21.6667V33.3333C3.33333 34.2174 3.68452 35.0652 4.30964 35.6904C4.93476 36.3155 5.78261 36.6667 6.66667 36.6667H11.6667" stroke="white" stroke-width="4" stroke-linecap="round" stroke-linejoin="round"/>
</svg>
